<mxfile host="app.diagrams.net" modified="2023-05-23T02:59:30.934Z" agent="Mozilla/5.0 (Windows NT 10.0; Win64; x64) AppleWebKit/537.36 (KHTML, like Gecko) Chrome/113.0.0.0 Safari/537.36" etag="ZZwvnhlRdAKlO9WZU7jG" version="21.3.2" type="device">
  <diagram name="Trang-1" id="80TVdlzELggj1bKoL6tR">
    <mxGraphModel dx="770" dy="483" grid="1" gridSize="10" guides="1" tooltips="1" connect="1" arrows="1" fold="1" page="1" pageScale="1" pageWidth="827" pageHeight="1169" math="0" shadow="0">
      <root>
        <mxCell id="0" />
        <mxCell id="1" parent="0" />
        <mxCell id="v5LWJq6VgEQyZt_T4IiQ-2" value="Start" style="ellipse;whiteSpace=wrap;html=1;" vertex="1" parent="1">
          <mxGeometry x="340" y="30" width="110" height="60" as="geometry" />
        </mxCell>
        <mxCell id="v5LWJq6VgEQyZt_T4IiQ-3" value="" style="edgeStyle=none;orthogonalLoop=1;jettySize=auto;html=1;rounded=0;exitX=0.5;exitY=1;exitDx=0;exitDy=0;" edge="1" parent="1" source="v5LWJq6VgEQyZt_T4IiQ-2">
          <mxGeometry width="100" relative="1" as="geometry">
            <mxPoint x="360" y="170" as="sourcePoint" />
            <mxPoint x="395" y="130" as="targetPoint" />
            <Array as="points" />
          </mxGeometry>
        </mxCell>
        <mxCell id="v5LWJq6VgEQyZt_T4IiQ-4" value="Khởi tạo và cấu hình ngoại vi" style="rounded=1;whiteSpace=wrap;html=1;" vertex="1" parent="1">
          <mxGeometry x="335" y="130" width="120" height="60" as="geometry" />
        </mxCell>
        <mxCell id="v5LWJq6VgEQyZt_T4IiQ-6" value="" style="edgeStyle=none;orthogonalLoop=1;jettySize=auto;html=1;rounded=0;exitX=0.5;exitY=1;exitDx=0;exitDy=0;" edge="1" parent="1" source="v5LWJq6VgEQyZt_T4IiQ-8">
          <mxGeometry width="100" relative="1" as="geometry">
            <mxPoint x="394.57" y="190" as="sourcePoint" />
            <mxPoint x="394.57" y="230" as="targetPoint" />
            <Array as="points" />
          </mxGeometry>
        </mxCell>
        <mxCell id="v5LWJq6VgEQyZt_T4IiQ-7" value="While (1)" style="rounded=1;whiteSpace=wrap;html=1;" vertex="1" parent="1">
          <mxGeometry x="335" y="330" width="120" height="20" as="geometry" />
        </mxCell>
        <mxCell id="v5LWJq6VgEQyZt_T4IiQ-9" value="" style="edgeStyle=none;orthogonalLoop=1;jettySize=auto;html=1;rounded=0;exitX=0.5;exitY=1;exitDx=0;exitDy=0;" edge="1" parent="1" target="v5LWJq6VgEQyZt_T4IiQ-8">
          <mxGeometry width="100" relative="1" as="geometry">
            <mxPoint x="394.57" y="190" as="sourcePoint" />
            <mxPoint x="394.57" y="230" as="targetPoint" />
            <Array as="points" />
          </mxGeometry>
        </mxCell>
        <mxCell id="v5LWJq6VgEQyZt_T4IiQ-8" value="Đọc tham số từ flash và chạy chương trình ban đầu" style="rounded=1;whiteSpace=wrap;html=1;" vertex="1" parent="1">
          <mxGeometry x="335" y="230" width="120" height="60" as="geometry" />
        </mxCell>
        <mxCell id="v5LWJq6VgEQyZt_T4IiQ-10" value="" style="edgeStyle=none;orthogonalLoop=1;jettySize=auto;html=1;rounded=0;exitX=0.5;exitY=1;exitDx=0;exitDy=0;" edge="1" parent="1">
          <mxGeometry width="100" relative="1" as="geometry">
            <mxPoint x="394.57" y="290" as="sourcePoint" />
            <mxPoint x="395" y="330" as="targetPoint" />
            <Array as="points" />
          </mxGeometry>
        </mxCell>
        <mxCell id="v5LWJq6VgEQyZt_T4IiQ-11" value="Năm trong RTC" style="rhombus;whiteSpace=wrap;html=1;" vertex="1" parent="1">
          <mxGeometry x="325" y="390" width="140" height="80" as="geometry" />
        </mxCell>
        <mxCell id="v5LWJq6VgEQyZt_T4IiQ-13" value="" style="edgeStyle=none;orthogonalLoop=1;jettySize=auto;html=1;rounded=0;exitX=0.5;exitY=1;exitDx=0;exitDy=0;" edge="1" parent="1">
          <mxGeometry width="100" relative="1" as="geometry">
            <mxPoint x="394.57" y="350" as="sourcePoint" />
            <mxPoint x="395" y="390" as="targetPoint" />
            <Array as="points" />
          </mxGeometry>
        </mxCell>
        <mxCell id="v5LWJq6VgEQyZt_T4IiQ-14" value="Lấy thời tgian trong RTC" style="rounded=1;whiteSpace=wrap;html=1;" vertex="1" parent="1">
          <mxGeometry x="500" y="400" width="120" height="60" as="geometry" />
        </mxCell>
        <mxCell id="v5LWJq6VgEQyZt_T4IiQ-15" value="" style="edgeStyle=none;orthogonalLoop=1;jettySize=auto;html=1;rounded=0;exitX=1;exitY=0.5;exitDx=0;exitDy=0;entryX=0;entryY=0.5;entryDx=0;entryDy=0;" edge="1" parent="1" source="v5LWJq6VgEQyZt_T4IiQ-11" target="v5LWJq6VgEQyZt_T4IiQ-14">
          <mxGeometry width="100" relative="1" as="geometry">
            <mxPoint x="440" y="490" as="sourcePoint" />
            <mxPoint x="540" y="490" as="targetPoint" />
            <Array as="points" />
          </mxGeometry>
        </mxCell>
        <mxCell id="v5LWJq6VgEQyZt_T4IiQ-18" value="Module Sim" style="ellipse;whiteSpace=wrap;html=1;" vertex="1" parent="1">
          <mxGeometry x="335" y="510" width="120" height="80" as="geometry" />
        </mxCell>
        <mxCell id="v5LWJq6VgEQyZt_T4IiQ-19" value="" style="edgeStyle=none;orthogonalLoop=1;jettySize=auto;html=1;rounded=0;exitX=0.5;exitY=1;exitDx=0;exitDy=0;entryX=0.5;entryY=0;entryDx=0;entryDy=0;" edge="1" parent="1" source="v5LWJq6VgEQyZt_T4IiQ-11" target="v5LWJq6VgEQyZt_T4IiQ-18">
          <mxGeometry width="100" relative="1" as="geometry">
            <mxPoint x="480" y="550" as="sourcePoint" />
            <mxPoint x="580" y="550" as="targetPoint" />
            <Array as="points" />
          </mxGeometry>
        </mxCell>
        <mxCell id="v5LWJq6VgEQyZt_T4IiQ-21" value="" style="edgeStyle=segmentEdgeStyle;endArrow=classic;html=1;curved=0;rounded=0;endSize=8;startSize=8;sourcePerimeterSpacing=0;targetPerimeterSpacing=0;entryX=0;entryY=0.5;entryDx=0;entryDy=0;" edge="1" parent="1" target="v5LWJq6VgEQyZt_T4IiQ-7">
          <mxGeometry width="100" relative="1" as="geometry">
            <mxPoint x="330" y="550" as="sourcePoint" />
            <mxPoint x="230" y="410" as="targetPoint" />
            <Array as="points">
              <mxPoint x="280" y="550" />
              <mxPoint x="280" y="340" />
            </Array>
          </mxGeometry>
        </mxCell>
        <mxCell id="v5LWJq6VgEQyZt_T4IiQ-22" value="Khác 0" style="text;html=1;align=center;verticalAlign=middle;resizable=0;points=[];autosize=1;strokeColor=none;fillColor=none;" vertex="1" parent="1">
          <mxGeometry x="440" y="400" width="60" height="30" as="geometry" />
        </mxCell>
        <mxCell id="v5LWJq6VgEQyZt_T4IiQ-23" value="Bằng 0" style="text;html=1;align=center;verticalAlign=middle;resizable=0;points=[];autosize=1;strokeColor=none;fillColor=none;" vertex="1" parent="1">
          <mxGeometry x="390" y="468" width="60" height="30" as="geometry" />
        </mxCell>
        <mxCell id="v5LWJq6VgEQyZt_T4IiQ-24" value="Có tín hiệu thì đóng gói bản tin" style="rounded=1;whiteSpace=wrap;html=1;" vertex="1" parent="1">
          <mxGeometry x="500" y="530" width="120" height="40" as="geometry" />
        </mxCell>
        <mxCell id="v5LWJq6VgEQyZt_T4IiQ-25" value="" style="edgeStyle=none;orthogonalLoop=1;jettySize=auto;html=1;rounded=0;exitX=0;exitY=0.5;exitDx=0;exitDy=0;" edge="1" parent="1" source="v5LWJq6VgEQyZt_T4IiQ-24" target="v5LWJq6VgEQyZt_T4IiQ-18">
          <mxGeometry width="100" relative="1" as="geometry">
            <mxPoint x="450" y="620" as="sourcePoint" />
            <mxPoint x="550" y="620" as="targetPoint" />
            <Array as="points" />
          </mxGeometry>
        </mxCell>
        <mxCell id="v5LWJq6VgEQyZt_T4IiQ-26" value="" style="edgeStyle=none;orthogonalLoop=1;jettySize=auto;html=1;rounded=0;exitX=0.5;exitY=1;exitDx=0;exitDy=0;entryX=0.5;entryY=0;entryDx=0;entryDy=0;" edge="1" parent="1" source="v5LWJq6VgEQyZt_T4IiQ-14" target="v5LWJq6VgEQyZt_T4IiQ-24">
          <mxGeometry width="100" relative="1" as="geometry">
            <mxPoint x="480" y="500" as="sourcePoint" />
            <mxPoint x="580" y="500" as="targetPoint" />
            <Array as="points" />
          </mxGeometry>
        </mxCell>
      </root>
    </mxGraphModel>
  </diagram>
</mxfile>
